<?xml version="1.0" encoding="utf-8"?>
<!-- Generator: Adobe Illustrator 23.0.6, SVG Export Plug-In . SVG Version: 6.00 Build 0)  -->
<svg version="1.1" id="Layer_1" xmlns="http://www.w3.org/2000/svg" xmlns:xlink="http://www.w3.org/1999/xlink" x="0px" y="0px"
	 viewBox="0 0 250 100" style="enable-background:new 0 0 250 100;" xml:space="preserve">
<style type="text/css">
	.st0{fill:#231F20;}
	.st1{fill:none;}
	.st2{fill:#FFFFFF;}
</style>
<g>
	<path class="st0" d="M47.15,24.89h16.57v1.96l-5.15,0.73L35.39,48.56l27.35,28.17l6.44,0.73l1.54,1.96h-6.9H43.07v-1.96l5.8-0.73
		L28.13,54.6v22.13l7.1,0.73v1.96H10.17v-1.96l7.1-0.73V27.57l-7.1-0.73v-1.96h25.06v1.96l-7.1,0.73v23.36l26.01-23.36l-6.99-0.73
		V24.89z"/>
	<path class="st0" d="M70.56,51.34c-1.2,0.82-2.45,1.22-3.75,1.22s-2.42-0.43-3.35-1.31c-0.93-0.87-1.39-2.16-1.39-3.88
		c0-1.71,0.52-3.25,1.55-4.61c1.03-1.36,2.37-2.37,4-3.02c3.21-1.36,6.26-2.04,9.14-2.04c6.42,0,10.8,1.13,13.14,3.39
		c2.34,2.26,3.51,5.73,3.51,10.41v25.23l6.86,0.73v1.96H83.62v-6.94c-2.56,4.63-6.64,6.94-12.9,6.94c-2.83,0-5.27-0.86-7.31-2.57
		c-2.04-1.71-3.06-4.12-3.06-7.22c0.05-4.14,2.12-7.25,6.2-9.35c4.08-2.09,9.77-3.14,17.06-3.14v-7.02c0-3.32-0.46-5.88-1.39-7.67
		c-0.93-1.8-2.64-2.69-5.14-2.69c-2.5,0-4.38,1.03-5.63,3.1c-0.82,1.36-1.22,2.8-1.22,4.33C70.23,48.7,70.34,50.08,70.56,51.34z
		 M83.62,59.33c-6.31,0-10.29,1.66-11.92,4.98c-0.71,1.42-1.06,3.18-1.06,5.31c0,3.65,1.25,5.77,3.75,6.37
		c0.38,0.11,0.79,0.16,1.22,0.16c1.74,0,3.48-0.91,5.22-2.73c1.74-1.82,2.67-4.18,2.78-7.06V59.33z"/>
	<path class="st0" d="M117.97,41.7c2.48-2.07,4.73-3.1,6.78-3.1c2.04,0,3.41,0.5,4.12,1.51c0.71,1.01,1.06,1.84,1.06,2.49
		c0,2.23-0.82,3.84-2.45,4.82c-1.09-0.87-2.71-1.31-4.86-1.31c-2.15,0-4.29,0.67-6.41,2c-2.12,1.33-3.18,2.79-3.18,4.37v24.25
		l7.35,0.73v1.96H97.6v-1.96l5.39-0.73V42.27l-6.61-0.33v-1.88l16.65-0.9l-0.49,10.04h0.33C113.79,46.27,115.49,43.77,117.97,41.7z"
		/>
	<path class="st0" d="M138.94,79.42h-21.06v-1.96l5.31-0.73V20.57h-7.02v-1.96l17.47-0.73v58.85l5.31,0.73V79.42z"/>
	<path class="st0" d="M156.27,73.58c0,1.55-0.56,2.91-1.67,4.08c-1.12,1.17-2.49,1.76-4.12,1.76c-1.63,0-3.01-0.57-4.12-1.71
		c-1.12-1.14-1.67-2.52-1.67-4.12c0-1.6,0.57-2.98,1.71-4.12c1.14-1.14,2.5-1.71,4.08-1.71c1.58,0,2.94,0.59,4.08,1.76
		C155.7,70.67,156.27,72.03,156.27,73.58z"/>
	<path class="st0" d="M220.71,79.42h-24v-1.96l6.62-0.73l-7.51-18.78h-18.37l-7.06,18.78l7.79,0.73v1.96h-17.06v-1.96l5.66-0.73
		l20.3-51.84h5.71l21.64,51.84l6.28,0.73V79.42z M194.59,54.93l-8-19.84l-8,19.84H194.59z"/>
	<path class="st0" d="M237,79.42h-21.06v-1.96l5.31-0.73V42.27l-7.02-0.41v-1.71l17.47-1.06v37.64l5.31,0.73V79.42z M232.27,25.34
		c0,1.66-0.59,3.09-1.76,4.29c-1.17,1.2-2.63,1.8-4.37,1.8c-1.74,0-3.2-0.58-4.37-1.76c-1.17-1.17-1.75-2.61-1.75-4.33
		s0.6-3.18,1.8-4.41c1.2-1.22,2.64-1.84,4.33-1.84c1.69,0,3.13,0.63,4.33,1.88C231.67,22.22,232.27,23.68,232.27,25.34z"/>
	<path class="st1" d="M126.99,81.99"/>
	<path class="st1" d="M126.99,27.81"/>
	<path class="st2" d="M124.74,38.6c-0.51,0-1.03,0.06-1.56,0.19v7.33c1.87,0.07,3.3,0.5,4.3,1.29c1.63-0.98,2.45-2.58,2.45-4.82
		c0-0.65-0.35-1.48-1.06-2.49C128.16,39.1,126.78,38.6,124.74,38.6z"/>
	<path class="st1" d="M126.99,73.17"/>
</g>
</svg>
